<svg aria-hidden="true" style="position:absolute;width:0;height:0;overflow:hidden" xmlns="http://www.w3.org/2000/svg">
  <defs>
    <symbol id="icon-vector1" viewBox="0 0 14 32">
      <path fill="#84a178" style="fill:var(--color1, #84a178)" d="M13.513 15.879H9.337v15.393H3.01V15.879H.001v-5.41H3.01V6.968C3.01 4.465 4.192.544 9.394.544l4.687.02v5.251H10.68c-.558 0-1.342.28-1.342 1.475v3.184h4.729l-.553 5.405z"/>
    </symbol>
    <symbol id="icon-telegram" viewBox="0 0 40 32">
      <path fill="#84a178" style="fill:var(--color1, #84a178)" d="m16.205 20.638-.635 8.341c.909 0 1.302-.364 1.774-.802l4.261-3.801 8.829 6.036c1.619.843 2.76.399 3.197-1.391l5.797-25.352c.514-2.235-.866-3.108-2.443-2.56L2.92 13.284c-2.325.842-2.29 2.052-.395 2.601l8.709 2.529L31.463 6.597c.952-.589 1.818-.263 1.106.326L16.205 20.64z"/>
    </symbol>
    <symbol id="icon-vector" viewBox="0 0 32 32">
      <path fill="#84a178" style="fill:var(--color1, #84a178)" d="M15.999.847C7.728.847.94 7.636.94 15.909c0 7.06 4.953 13.473 11.529 15.062v-4.983c-.652.143-1.251.147-1.915-.049-.89-.263-1.613-.856-2.15-1.76-.342-.577-.949-1.203-1.581-1.157l-.155-1.758c1.368-.117 2.551.834 3.254 2.014.312.525.671.833 1.132.969.446.131.924.068 1.481-.129.14-1.116.651-1.534 1.037-2.123v-.001c-3.922-.585-5.486-2.667-6.106-4.309-.822-2.181-.381-4.907 1.073-6.629.028-.034.079-.121.059-.183-.667-2.014.146-3.68.176-3.857.769.228.894-.229 3.342 1.258l.423.254c.177.105.121.045.298.032a12.77 12.77 0 0 1 3.16-.445 12.84 12.84 0 0 1 3.204.456l.137.014c-.012-.002.037-.009.12-.058 3.057-1.852 2.947-1.247 3.767-1.513.03.177.831 1.87.172 3.859-.089.274 2.651 2.783 1.132 6.811-.62 1.644-2.183 3.725-6.106 4.31v.001c.503.767 1.107 1.174 1.104 2.756v6.22c6.577-1.589 11.529-8.003 11.529-15.062 0-8.273-6.788-15.062-15.059-15.062z"/>
    </symbol>
    <symbol id="icon-chevron-right" viewBox="0 0 19 28">
<path d="M17.297 13.703l-11.594 11.594c-0.391 0.391-1.016 0.391-1.406 0l-2.594-2.594c-0.391-0.391-0.391-1.016 0-1.406l8.297-8.297-8.297-8.297c-0.391-0.391-0.391-1.016 0-1.406l2.594-2.594c0.391-0.391 1.016-0.391 1.406 0l11.594 11.594c0.391 0.391 0.391 1.016 0 1.406z"></path>
</symbol>
    <symbol id="icon-Frame-32" viewBox="0 0 32 32">
      <path stroke-linejoin="round" stroke-linecap="round" stroke-width="5.333" d="M10.667 5.333 23.863 16 10.667 26.667"/>
    </symbol>
    <symbol id="icon-vector-off" viewBox="0 0 32 32">
<path d="M18.088 16l12.283-12.283c0.217-0.256 0.349-0.59 0.349-0.955 0-0.819-0.664-1.483-1.483-1.483-0.366 0-0.701 0.132-0.959 0.352l0.002-0.002-12.28 12.283-12.283-12.296c-0.273-0.295-0.662-0.479-1.094-0.479-0.822 0-1.488 0.666-1.488 1.488 0 0.431 0.184 0.82 0.477 1.092l0.001 0.001 12.296 12.283-12.293 12.28c-0.323 0.274-0.527 0.68-0.527 1.134 0 0.819 0.664 1.483 1.483 1.483 0.453 0 0.859-0.203 1.131-0.524l0.002-0.002 12.293-12.283 12.283 12.283c0.258 0.222 0.596 0.357 0.965 0.357 0.819 0 1.483-0.664 1.483-1.483 0-0.37-0.135-0.707-0.359-0.967l0.002 0.002-12.283-12.28z"></path>
</symbol>
  </defs>
</svg>
